<svg width="100%" height="100%" viewBox="0 0 827 292" version="1.1" xmlns="http://www.w3.org/2000/svg" xml:space="preserve" fill-rule="evenodd" clip-rule="evenodd" stroke-linejoin="round" stroke-miterlimit="2">
  <g fill="#eee">
    <path d="M522.026 200.535c0 5.226-.009 10.778 1.443 15.665 1.524 5.101 1.217 4.736 3.591 9.534 2.794 5.641 7.249 10.185 12.738 13.13 8.385 4.5 22.852 4.826 30.444-1.265 6.068-4.856 5.56-9.12 8.803-4.558 1.858 2.602 3.81 4.433 6.723 6.011 11.905 6.433 28.947 3.225 37.733-8.27 10.243-13.397 10.63-35.393 3.439-50.808-2.218-4.763-3.426-6.946-6.509-10.595-5.627-6.679-2.179-5.053-18.427-5.053-.931 0-1.586.66-1.586 1.586 0 1.751 4.433 6.541 6.736 10.377.321.521.749 1.167 1.056 1.733.504.918.561 1.332.989 2.188 5.547 11.107 5.863 26.473.82 37.487-1.559 3.408-6.126 8.3-10.795 8.3-4.607 0-7.378.094-10.876-4.647-5.444-7.391-2.005-25.23-3.849-33.152-3.64-.842-9.936-.396-13.928-.396-2.107 0-1.613 2.628-1.599 4.771.067 7.329.379 22.901-3.4 28.434-3.528 5.182-6.794 4.99-11.316 4.99-8.684 0-13.928-13.286-13.928-21.884 0-12.957 1.132-20.874 8.35-31.036.793-1.119 1.452-2.13 2.339-3.23.307-.388 2.441-2.954 2.441-3.137 0-1.216-.365-2.384-1.59-2.384h-13.531c-1.292 0-5.516 5.463-6.429 6.701-5.578 7.601-9.882 19.074-9.882 29.508M41.331 225.996c-4.892 0-8.274.393-12.663-2.459-2.094-1.35-3.791-2.718-5.31-4.633-8.198-10.315-7.098-31.446 6.028-38.276 13.424-6.977 30.644.833 30.644 22.686 0 11.749-8.702 22.682-18.699 22.682M-.055 201.728c0 5.877 1.1 12.137 2.78 16.325 3.578 8.897 8.621 16.052 17.643 20.552 10.55 5.271 22.161 4.937 32.337-1.23 1.822-1.104 3.217-3.02 4.941-3.02 2.807 0-.824 5.569 3.983 5.569h13.126c.926 0 1.991-1.06 1.991-1.987v-71.228c0-1.216-.37-2.384-1.59-2.384-4.215 0-12.221-.458-15.919.397-.535 6.447-.455 7.347-4.897 3.702-17.999-14.778-54.395-3.225-54.395 33.304M92.663 165.915v12.341c0 .949.646 1.163 1.194 1.987 3.061 0 9.374-.646 11.539.401 1.266 2.629.401 50.6.401 58.085.816.548 1.029 1.194 1.987 1.194 4.157 0 11.852.458 15.518-.401.976-4.162.406-42.629.397-52.912 0-2.29-.766-6.367 1.595-6.367h23.475c2.188 0 1.595 4.121 1.595 6.367v47.743c-.027 6.759-2.103 5.57 15.117 5.57 3.426 0 2.798-3.057 2.789-6.367v-47.343c-.009-6.656-.632-6.059 3.569-5.983 3.128.053 6.638.205 9.16-.388.851-3.631.401-9.935.401-13.927 0-.927-.659-1.586-1.595-1.586H94.258c-.936 0-1.595.659-1.595 1.586M763.163 206.5c0 11.762.049 25.097 8.447 34.124 7.098 7.618 14.391 8.523 23.957 10.274 4.263.771 9.94 1.167 12.265 4.843 1.511 2.375 1.488 3.399 1.488 6.068 0 10.02-12.733 14.328-12.733 17.906 0 1.689 5.489 8.684 7.137 10.769 1.698 2.152 2.99 1.243 5.899-1.716 2.21-2.245 2.09-1.795 3.582-3.181l6.358-7.177c1.88-2.544 3.613-5.489 4.741-8.786 3.127-9.183 3.043-21.346-3.533-28.412-4.518-4.861-9.098-5.649-15.26-7.031-6.777-1.514-11.762-2.12-16.605-5.676-10.261-7.525-7.944-29.303-2.981-37.839.388-.664.735-1.101 1.11-1.675 7.266-10.92 21.51-10.359 31.601-3.342.825.575 3.079 2.553 3.819 2.553.931 0 1.991-1.065 1.991-1.991v-15.514c0-2.891-6.429-4.981-8.902-5.828-16.119-5.48-32.822-2.904-43.466 11.157-5.578 7.373-8.915 21.096-8.915 30.474M235.119 225.996h-5.966c-10.67 0-19.104-11.102-19.104-21.884 0-7.267.659-13.821 5.863-19.207 13.165-13.629 38.708-6.412 38.708 17.22 0 5.841-1.938 11.86-5.226 16.262-2.486 3.319-8.635 7.609-14.275 7.609m-43.373-24.268c0 2.629.508 6.501 1.038 8.915 1.288 5.984 2.887 9.134 5.85 14.039 3.502 5.819 10.189 11.063 16.324 13.914 2.411 1.123 4.696 1.876 7.418 2.531 9.174 2.205 17.964 1.069 26.109-2.161 22.816-9.04 32.328-40.299 15.518-61.747l-2.059-2.317c-.057-.053-.138-.142-.196-.204-6.745-7.035-17.211-12.36-27.026-12.36-11.392 0-13.843.633-23.479 5.565-10.283 5.257-19.497 19.434-19.497 33.825M638.611 164.722c-.143 1.707-.473 1.03.142 2.625 2.032 5.297 8.1 16.391 10.6 22.049l21.229 44.028c3.346 7.013 5.066 13.914 8.786 5.471.807-1.822 1.475-3.056 2.353-4.807 1.653-3.297 3.047-6.492 4.642-9.682.793-1.59 1.618-3.172 2.393-4.771l9.276-19.368c.873-1.746 1.519-3.02 2.392-4.776 1.649-3.301 3.048-6.487 4.647-9.681l3.524-7.214c.517-1.002.642-1.278 1.137-2.446 1.087-2.553 7.333-11.824 2.896-11.824-21.511 0-15.443-2.344-21.355 9.289-2.014 3.974-11.459 24.451-12.903 28.073-2.352 5.886-5.034-2.102-5.141-2.343-.758-1.689-1.595-3.431-2.397-5.168l-9.276-20.165c-1.395-2.896-3.707-9.686-5.431-9.686-2.99 0-15.505-.383-17.514.396M727.35 164.327c-.209.891-.396.913-.396 1.987v71.62c0 .926 1.06 1.991 1.987 1.991h13.531c1.341 0 2.784-.704 2.784-1.991v-72.021c0-.922-1.06-1.983-1.987-1.983-2.82 0-13.949-.365-15.919.397M729.737 152.788c3.466.806 7.543.396 11.143.396 2.535 0 1.996-7.342 2.669-12.452l1.314-13.807c-2.963-1.979-8.545-1.19-13.928-1.19-5.043 0-3.141 2.486-2.41 11.553l1.212 15.5ZM412.199 175.93l6.648-16.89c2.744-6.866 3.872-13.46 9.704-14.181 7.841-.958 9.302 5.814 11.842 11.962 5.52 13.362 12.034 27.864 17.853 41.435l18.017 41.667h33.028c-.139-1.644-17.92-40.299-20.161-45.093l-13.526-29.842c-2.331-5.244-4.523-9.806-6.786-15.099l-17.059-37.456c-4.246-10.279-10.952-23.248-15.233-33.71-.633-1.546-1.074-2.303-1.787-3.782-.65-1.346-.909-2.255-1.582-3.591-5.079-10.087-10.38-23.622-15.25-33.687-2.972-6.126-16.155-36.022-17.256-37.661h-32.622c.308 1.336 10.858 24.535 11.539 25.859 6.029 11.833 13.349 30.167 19.631 43.239l7.828 17.238c1.368 2.766 2.392 5.618 3.845 8.487 2.04 4.019 2.161 5.36.267 9.557-4.183 9.289-9.427 20.98-13.326 30.443-.312.762-.552 1.292-.962 2.215-.579 1.283-.611 1.082-1.096 2.223l-15.79 35.946c-.646 2.312-5.462 12.804-6.826 16.115l-15.798 35.923c-1.114 2.704-5.106 11.161-5.231 12.676h34.618l10.145-25.467"/>
    <path d="m395.753 139.261-11.816-25.859c-1.318-2.936-2.651-5.77-3.974-8.755-.619-1.372-1.363-2.633-1.933-4.036l-3.921-8.813c-4.157-9.655-9.882-20.909-13.812-30.35-4.464-10.719-10.924-24.175-15.861-35.072C343.229 23.707 332.995 1.64 332.612 0h-32.631c.04 1.773 2.21 5.886 3.047 7.699 7.873 16.846 15.589 34.703 23.484 51.718 1.203 2.597 2.09 5.03 3.315 7.427 2.647 5.195 7.213 16.182 10.087 22.143 5.921 12.319 5.315 9.833-.548 23.208-2.798 6.371-7.151 16.939-9.94 22.691l-9.775 22.45c-1.118 2.678-2.263 4.928-3.297 7.45-3.867 9.427-8.995 20.325-13.076 29.891l-13.072 29.895c-1.19 2.852-6.118 13.54-6.541 15.353h34.618c.709-1.327.989-2.593 1.6-3.978.619-1.404 1.065-2.691 1.697-4.269l11.584-29c2.714-7.681 8.853-22.218 11.789-29.592l9.86-24.758c1.804-3.404 10.955-6.724 14.466 2.013l7.089 16.383c1.243 2.829 2.357 5.663 3.595 8.483"/>
  </g>
</svg>