<svg width="100%" height="100%" viewBox="0 0 828 250" version="1.1" xmlns="http://www.w3.org/2000/svg" xml:space="preserve" fill-rule="evenodd" clip-rule="evenodd" stroke-linejoin="round" stroke-miterlimit="2">
  <g fill="#eee" fill-rule="nonzero">
    <path d="M149.843 38.311c-1.04 14.037-3.101 27.922-8.769 41.012-1.037 2.396-1.816 5.672-5.213 5.466-2.789-.171-3.744-2.98-4.71-5.224-4.013-9.3-7.858-18.673-11.956-27.934-.943-2.131-1.676-5.162-4.66-5.166-2.941-.003-3.841 2.926-4.761 5.085-3.872 9.089-7.433 18.314-11.321 27.399-1.025 2.392-1.975 5.688-5.096 5.828-3.748.172-4.379-3.56-5.415-6.163-5.828-14.617-8.692-29.827-8.68-45.578.004-5.271 2.345-9.529 5.711-13.308 7.383-8.29 17.049-13.429 26.418-18.98 1.703-1.006 3.109-.986 4.804-.008 9.214 5.333 18.579 10.382 26.071 18.217 5.213 5.45 8.653 11.45 7.577 19.354M61.753 219.297c-21.989-.841-17.212 1.013-26.029-19.646-7.012-16.425-5.123-30.571 8.739-42.863 8.154-7.23 15.747-15.069 25.506-20.235 5.174-2.742 7.511-1.176 6.872 4.632-1.118 10.11-4.562 19.706-6.67 29.597-.654 3.062-2.333 6.822.694 8.902 2.645 1.816 5.629-.732 8.123-2.251 8.029-4.901 15.934-10.009 24.014-14.816 2.224-1.321 4.92-3.374 7.546-1.407 2.357 1.765 1.122 4.687.612 6.982-3.553 15.91-10.18 30.586-20.153 43.372-6.849 8.781-17.512 7.956-29.254 7.733M58.559 132.531a175.26 175.26 0 0 1-33.018-4.317c-8.388-1.924-14.111-6.88-17.636-14.524-3.966-8.594-5.941-17.769-7.757-26.998-.46-2.333-.444-4.223 1.601-5.964C9.288 74.307 16.441 67.4 25.3 62.721c7.889-4.165 15.758-4.769 24.216-1.107 12.12 5.244 23.609 11.411 33.832 19.815 2.104 1.73 4.714 3.748 4.06 6.611-.725 3.179-4.189 3.012-6.83 3.269-9.837.974-19.686 1.811-29.527 2.731-2.676.253-5.917.113-6.915 3.163-.896 2.743 1.703 4.477 3.506 6.05 7.461 6.514 15.093 12.833 22.515 19.386 1.955 1.722 5.115 3.549 4.238 6.452-.993 3.3-4.963 2.715-7.694 3.319-2.599.569-5.419.121-8.142.121M172.347 133.387c-3.214-.144-6.432-.249-9.642-.452-2.926-.183-6.775.429-7.971-2.672-1.352-3.491 2.193-5.727 4.453-7.773 5.883-5.314 12.139-10.218 18.022-15.528 2.98-2.696 8.524-5.1 6.962-9.401-1.43-3.943-7.149-3.261-11.298-3.542-8.645-.58-17.309-1.009-25.927-1.881-2.213-.222-5.478-.347-6.042-3.327-.437-2.314 1.694-4.064 3.334-5.478 12.572-10.784 26.835-18.634 42.602-23.613 5.769-1.827 11.329.246 16.471 2.813 8.976 4.48 16.028 11.586 23.578 17.991 1.453 1.227 2.018 2.7 1.539 4.617-2.349 9.338-4.036 18.825-7.885 27.773-3.947 9.167-10.453 14.785-20.243 16.714-9.237 1.823-18.455 3.744-27.953 3.759M165.493 233.656c13.336.923 25.343-3.456 30.766-17.668 8.169-21.392.705-49.524-32.243-48.924-1.729.035-3.479.163-5.189-.02-5.466-.584-7.433 1.753-7.347 7.231.241 15.583.054 31.171.081 46.754.028 14.668-.724 12.405 13.932 12.627m-29.589-32.683c0-13.133.039-26.266-.027-39.399-.016-3.779.381-7.332 5.119-7.429 13.846-.277 27.824-1.644 41.46 1.461 26.363 6.004 36.457 28.097 32.288 55.154-3.502 22.724-20.476 36.399-43.532 36.66-9.416.113-18.836-.102-28.249.066-5.072.09-7.153-2.077-7.098-7.11.132-13.133.043-26.27.039-39.403M346.245 198.038c6.023.541 13.184.015 17.099-7.667 3.191-6.253 3.059-12.837-1.889-17.956-7.005-7.247-16.682-6.432-25.148-4.726-6.335 1.274-2.018 8.505-3.074 12.934-.448 1.87-.086 3.935-.074 5.914.07 12.942-.845 11.349 13.086 11.501m-28.654 2.501c-.008-12.903.222-25.81-.109-38.705-.152-5.914 2.268-8.092 7.839-7.96 10.168.246 20.344.152 30.5.526 12.393.46 20.645 6.573 24.116 17.391 3.806 11.855.397 26.025-9.027 32.258-5.104 3.37-4.141 5.797-1.749 9.888 4.877 8.333 9.443 16.853 13.974 25.389 3.526 6.639 2.552 7.593-5.088 8.244-6.533.553-10.02-2.198-12.669-7.788-3.713-7.827-7.94-15.416-12.093-23.025-2.407-4.41-14.656-6.86-18.532-3.899-1.89 1.441-1.547 3.525-1.563 5.454-.058 7.694-.226 15.388.012 23.075.183 5.922-3.417 6.14-7.776 6.105-4.266-.035-7.971-.027-7.889-6.015.187-13.644.058-27.291.054-40.938M601.409 201.321c0 12.658-.21 25.319.093 37.973.145 5.934-1.554 8.419-7.978 8.333-6.553-.089-8.01-3.003-7.808-8.73.293-8.182-.152-16.39.152-24.568.187-5.029-1.387-7.211-6.701-7.074-10.666.28-21.345.229-32.012.019-4.519-.086-6.284 1.78-6.257 6.117.059 8.933-.155 17.87.008 26.803.098 5.404-2.1 7.453-7.573 7.371-5.357-.074-8.501-1.344-8.474-7.433.117-26.309.129-52.618-.004-78.926-.031-6.257 3.491-7.294 8.614-7.348 5.361-.051 7.597 2.17 7.449 7.585-.23 8.431.132 16.881-.105 25.312-.148 5.294 1.663 7.682 7.266 7.53 10.413-.28 20.842-.152 31.268-.062 4.55.039 6.751-1.469 6.541-6.545-.366-8.672.183-17.38-.191-26.048-.265-6.112 2.649-7.721 8.049-7.788 5.707-.066 7.897 2.205 7.76 8.018-.311 13.149-.097 26.309-.097 39.461M827.934 190.973c0 8.197-.023 16.386.004 24.579.078 23.063-17.079 34.895-38.76 34.435-10.004-.21-19.542-2.992-26.936-10.784-6.802-7.164-8.918-15.751-8.91-25.241.016-17.126.082-34.26-.156-51.386-.074-5.135 1.22-7.905 6.943-8.073 5.688-.159 9.217 1.407 9.217 7.675 0 16.636.004 33.267.016 49.906.008 16.912 7.655 24.159 24.291 23.033 11.002-.745 18.419-8.221 18.54-19.332.191-17.375.214-34.759-.027-52.134-.082-6.078 1.5-9.175 8.306-9.198 6.81-.02 7.675 3.491 7.538 8.964-.233 9.179-.066 18.373-.066 27.556M263.281 210.676c1.481 0 2.961.016 4.442-.004 8.762-.116 8.832-.307 6.132-8.722-2.848-8.891-5.552-17.828-8.275-26.753-.405-1.337.039-3.386-1.921-3.464-2.618-.105-1.835 2.365-2.302 3.842-2.38 7.503-4.761 15.003-7.126 22.51-3.954 12.568-6.362 12.537 9.05 12.591m.129-56.568c6.646-1.129 9.611 1.898 11.617 7.765 8.571 25.042 17.664 49.902 26.298 74.925 1.11 3.222 4.928 7.566-.655 10.316-5.641 2.77-12.151-.296-14.274-6.163-6.335-17.531-6.335-17.531-24.642-17.531-15.455 0-15.459 0-20.574 14.971-1.028 3.016-1.282 6.771-4.511 8.186-3.651 1.605-8.084 1.994-11.411-.16-3.495-2.264-.959-5.933.047-8.805 8.832-25.218 17.983-50.326 26.538-75.638 2.151-6.354 5.361-9.182 11.567-7.866M471.725 171.623c-.499.015-1.001.027-1.5.039-2.08 7.016-3.95 14.099-6.28 21.033-6.658 19.811-6.677 19.854 14.516 17.956.495-.042.99-.058 1.484-.085 3.098-.156 3.772-1.933 2.926-4.555-3.693-11.469-7.425-22.927-11.146-34.388m-.958 51.799c-16.655 0-16.604.016-22.156 15.88-1.165 3.338-1.461 7.351-6.35 8.146-10.492 1.702-12.498-.631-8.914-10.788 8.816-24.945 17.777-49.843 26.281-74.894 2.038-6.007 5.361-8.084 11.415-7.998 5.836.082 9.417 1.488 11.536 7.776 8.688 25.767 18.034 51.316 27.018 76.99 1.032 2.949 3.938 7.379-1.399 8.485-4.398.908-10.3 2.642-13.082-3.506-1.823-4.036-3.351-8.302-4.313-12.619-1.301-5.851-4.285-8.395-10.378-7.55-3.164.44-6.436.078-9.658.078M679.655 201.743c-.004-12.903.172-25.806-.081-38.701-.117-5.945 1.901-8.633 8.146-8.512 13.141.257 26.293.136 39.441.046 4.851-.031 8.174 1.021 8.174 6.927-.004 5.809-3.086 7.091-8.064 7.005-8.68-.152-17.364.07-26.044-.074-3.982-.066-6.202 1.247-5.914 5.516.031.495-.027.994-.02 1.489.324 22.907-3.058 18.704 18.436 19.171 2.481.055 4.967.121 7.441.004 4.737-.226 6.642 1.944 6.712 6.67.074 5.088-2.583 6.393-6.977 6.35-6.448-.074-12.903.078-19.351.023-4.235-.042-6.078 1.613-6.346 6.144-1.259 21.213-1.38 21.205 19.323 21.205 5.458 0 10.92.16 16.37-.039 4.508-.163 6.214 1.863 6.249 6.206.032 4.021-.783 6.787-5.61 6.76-15.377-.078-30.757-.047-46.138-.027-4.59.003-5.828-2.556-5.79-6.721.125-13.144.043-26.297.043-39.442M416.753 201.001c0 13.149-.171 26.297.082 39.438.109 5.696-2.357 7.165-7.628 7.13-5.505-.039-8.236-1.578-8.197-7.613.179-26.289.176-52.582.004-78.872-.039-5.84 2.984-7.168 7.889-7.207 4.816-.031 8.065.919 7.936 6.946-.284 13.39-.09 26.784-.086 40.178M640.705 216.539c-4.446 0-8.891.012-13.332-.004-4.441-.015-5.906-2.396-5.852-6.646.055-4.278 1.524-6.405 6.062-6.327 9.136.148 18.276.109 27.412.02 4.055-.043 5.781 1.768 5.839 5.789.059 3.892-.568 7.036-5.317 7.114-4.936.085-9.876.019-14.812.019v.035Z"/>
  </g>
</svg>