<svg width="100%" height="100%" viewBox="0 0 209 235" version="1.1" xmlns="http://www.w3.org/2000/svg" xml:space="preserve" fill-rule="evenodd" clip-rule="evenodd" stroke-linejoin="round" stroke-miterlimit="2">
  <g fill-rule="nonzero">
    <path d="M63.205 234.211C25.445 212.611 0 171.936 0 125.318 0 56.082 56.128-.045 125.362-.045c21.243 0 41.249 5.283 58.781 14.606L63.205 234.211z" fill="#447bbf"/>
    <path d="M192.32 125.318c0 36.979-29.978 66.957-66.957 66.957-36.98 0-66.956-29.978-66.956-66.957 0-36.979 29.976-66.956 66.956-66.956 36.979 0 66.957 29.977 66.957 66.956" fill="#8e8e8e"/>
    <path d="M112.663 210.482c-41.527-6.141-73.394-41.931-73.394-85.164 0-47.548 38.546-86.094 86.094-86.094 39.56 0 72.889 26.682 82.97 63.032l-84.532 22.597-11.138 85.629z"/>
    <path d="M107.965 229.212h29.386l-13.55-104.359-15.836 104.359z" fill="#447bbf"/>
  </g>
</svg>