<svg width="100%" height="100%" viewBox="0 0 417 360" version="1.1" xmlns="http://www.w3.org/2000/svg" xml:space="preserve" fill-rule="evenodd" clip-rule="evenodd" stroke-linejoin="round" stroke-miterlimit="2">
  <g fill-rule="nonzero">
    <path d="M83.488 194.927c.865 57.796 31.826 113.525 86.047 143.476 80.53 44.483 181.873 15.261 226.355-65.269 13.647-24.705 20.356-51.369 20.777-77.75l-333.179-.457Z" fill="#f7a8b0"/>
    <path d="M0 91.208c0 49.137 39.833 88.969 88.969 88.969 49.137 0 88.97-39.832 88.97-88.969 0-49.137-39.833-88.969-88.97-88.969C39.833 2.239 0 42.071 0 91.208" fill="#f04848"/>
    <path d="M394.219 182.449c33.248-44.785 29.561-108.355-11.06-148.977-44.675-44.674-117.109-44.674-161.784 0-37.17 37.171-43.414 93.555-18.734 137.181l100.657-58.193 90.921 69.989ZM65.647 359.2H19.393l21.326-164.273L65.647 359.2Z" fill="#0a5b85"/>
  </g>
</svg>