<svg width="100%" height="100%" viewBox="0 0 1725 292" version="1.1" xmlns="http://www.w3.org/2000/svg" xml:space="preserve" fill-rule="evenodd" clip-rule="evenodd" stroke-linejoin="round" stroke-miterlimit="2">
  <g fill="#eee">
    <path d="M73.329 147.332c27.126.448 52.859 16.249 64.69 42.648 16.296 36.365.033 79.061-36.332 95.353-36.37 16.306-79.061.042-95.367-36.323-11.826-26.389-6.5-56.122 11.212-76.662-4.112 13.983-3.016 31.025 4.07 46.836 13.162 29.368 40.316 39.58 63.515 29.184 23.189-10.4 33.631-37.465 20.469-66.833-7.081-15.811-19.077-27.967-32.257-34.203m10.447 36.015c-21.768 4.348-45.075-3.809-59.115-22.858C5.319 134.25 10.909 97.295 37.152 77.963c26.239-19.346 63.189-13.757 82.531 12.482 14.035 19.044 14.937 43.725 4.348 63.227.859-11.892-2.974-25.332-11.382-36.729C97.032 95.756 73.55 92.296 56.81 104.631c-16.731 12.336-20.375 35.789-4.763 56.972 8.412 11.406 20.101 19.044 31.729 21.744"/>
    <path d="M511.272 97.191c-1.747-.713-3.692-1.067-5.831-1.067-2.129 0-4.079.359-5.839 1.076h-.015c-1.732.718-3.347 1.808-4.829 3.291l-.024.009c-1.482 1.473-2.582 3.083-3.318 4.834-.727 1.757-1.096 3.683-1.096 5.802 0 2.106.369 4.041 1.096 5.798.727 1.76 1.85 3.384 3.342 4.881l.014.033c1.459 1.468 3.083 2.578 4.853 3.314 1.761.722 3.706 1.091 5.816 1.091 2.115 0 4.046-.369 5.807-1.086 1.761-.737 3.385-1.856 4.881-3.352 1.502-1.497 2.616-3.121 3.348-4.881.727-1.757 1.095-3.692 1.095-5.798 0-2.119-.368-4.045-1.095-5.802-.732-1.751-1.846-3.375-3.324-4.834l-.009-.009c-1.497-1.478-3.116-2.573-4.872-3.3m-19.927 73.287c4.437-1.874 9.29-2.809 14.554-2.809 5.377 0 10.32.921 14.829 2.766 4.513 1.851 8.554 4.617 12.109 8.3 3.564 3.668 6.226 7.907 8.002 12.708 1.76 4.759 2.638 10.051 2.638 15.844 0 5.924-.878 11.316-2.634 16.155-1.77 4.905-4.437 9.215-7.992 12.939-3.56 3.754-7.587 6.577-12.081 8.47-4.48 1.874-9.399 2.818-14.753 2.818-5.188 0-10.013-.968-14.46-2.884-4.433-1.922-8.436-4.778-11.991-8.569-3.569-3.81-6.236-8.12-8.016-12.954-1.761-4.801-2.644-10.074-2.644-15.853 0-5.712.874-10.957 2.611-15.701 1.747-4.778 4.381-9.046 7.893-12.789 3.503-3.739 7.483-6.548 11.935-8.441m76.049-22.703h-25.413v18.095l-5.089-5.131c-2.696-2.715-5.491-5.094-8.394-7.124-2.875-2.011-5.873-3.692-9.007-5.028a50.09 50.09 0 0 0-9.725-3.045c-3.296-.666-6.737-1.001-10.325-1.001-7.775 0-14.942 1.469-21.499 4.377-6.586 2.936-12.609 7.35-18.071 13.232-5.458 5.915-9.551 12.643-12.27 20.187-2.733 7.6-4.098 16.06-4.098 25.426 0 8.994 1.412 17.232 4.235 24.691 2.814 7.445 7.048 14.162 12.704 20.158 5.651 5.986 11.797 10.471 18.444 13.45 6.614 2.964 13.766 4.451 21.466 4.451 3.446 0 6.742-.306 9.9-.911a47.234 47.234 0 0 0 9.097-2.695v-.019c2.941-1.232 5.882-2.847 8.809-4.839 2.932-1.997 5.864-4.4 8.795-7.199l5.028-4.802v17.241h25.413V147.775Zm116.284 33.164 21.329-11.736a57.677 57.677 0 0 0-8.341-8.696c-3.938-3.337-8.385-6.222-13.323-8.648h-.009c-4.976-2.446-10.008-4.282-15.102-5.5a65.926 65.926 0 0 0-15.471-1.818c-10.06 0-19.091 1.379-27.069 4.136-7.908 2.728-14.838 6.84-20.782 12.307-5.896 5.439-10.334 11.902-13.289 19.375-2.983 7.544-4.475 16.131-4.475 25.79 0 7.969 1.166 15.14 3.498 21.522a47.73 47.73 0 0 0 10.391 16.745c4.659 4.877 10.891 9.183 18.699 12.912 7.912 3.791 17.458 6.982 28.618 9.579h.014c6.1 1.421 10.745 3.172 13.927 5.254 3.795 2.464 5.698 5.439 5.698 8.932 0 1.671-.198 3.196-.595 4.56h24.898c.085-.609.151-1.203.208-1.817.127-1.383.189-2.904.189-4.556 0-4.381-.633-8.356-1.889-11.939-1.237-3.531-3.106-6.732-5.589-9.598l-.005.015c-2.497-2.838-6.335-5.557-11.519-8.13-5.363-2.676-12.114-5.179-20.238-7.515-7.393-2.106-13.677-4.424-18.86-6.907-5.316-2.554-9.461-5.297-12.445-8.233l-.014-.024c-3.059-3.026-5.344-6.567-6.864-10.584-1.501-3.97-2.247-8.37-2.247-13.204 0-5.505.902-10.429 2.696-14.782 1.822-4.409 4.55-8.181 8.195-11.292 3.593-3.092 7.714-5.401 12.383-6.94 4.603-1.501 9.711-2.242 15.333-2.242a44.104 44.104 0 0 1 17.718 3.678c5.009 2.166 9.777 5.292 14.332 9.356m-346.234-33.244h-25.408v58.931c0 8.729.585 16.358 1.747 22.877 1.142 6.402 2.832 11.703 5.07 15.919 2.238 4.206 4.91 7.87 8.011 11.014a42.873 42.873 0 0 0 10.594 7.813v-.005c4.017 2.077 8.535 3.645 13.568 4.688 5.065 1.062 10.678 1.581 16.839 1.581 9.041 0 17.071-1.425 24.1-4.262 6.968-2.828 12.983-7.068 18.034-12.709v-.014c5.094-5.722 8.927-12.157 11.481-19.328 2.573-7.223 3.857-15.22 3.857-24.001 0-14.12-3.602-26.701-10.815-37.724-6.86-10.481-17.019-19.606-30.459-27.391l-13.705 21.051c9.328 4.919 16.48 10.768 21.442 17.538 5.58 7.624 8.37 16.339 8.37 26.177 0 12.175-2.681 21.419-8.049 27.707-5.481 6.425-13.568 9.635-24.256 9.635-5.061 0-9.512-.783-13.35-2.365-3.942-1.619-7.19-4.06-9.73-7.322l-.01.014c-2.506-3.196-4.366-7.704-5.584-13.497-1.162-5.537-1.747-12.307-1.747-20.281v-56.046Zm-115.752 36.813c3.867-1.619 8.059-2.436 12.567-2.436 4.424 0 8.564.808 12.44 2.436 3.829 1.615 7.336 4.013 10.518 7.204l.009.019c3.201 3.187 5.609 6.756 7.228 10.707 1.619 3.956 2.422 8.243 2.422 12.851 0 4.541-.774 8.776-2.351 12.67-1.558 3.89-3.899 7.417-7.011 10.547-3.106 3.168-6.609 5.537-10.508 7.119-3.886 1.572-8.139 2.351-12.747 2.351-4.612 0-8.861-.779-12.751-2.351v-.005c-3.909-1.577-7.426-3.946-10.546-7.114-3.092-3.13-5.425-6.661-6.978-10.556-1.567-3.9-2.341-8.125-2.341-12.661 0-4.589.788-8.852 2.384-12.785h.005c1.59-3.927 3.965-7.515 7.128-10.716 3.163-3.229 6.68-5.656 10.532-7.28m-22.4-33.32c2.596 4.693 6.519 9.088 11.759 13.186l4.032 3.139-4.73 1.955c-11.453 4.692-20.012 11.028-25.687 18.973-5.622 7.903-8.436 17.486-8.436 28.764 0 7.204 1.398 13.903 4.197 20.102 2.814 6.222 7.058 11.991 12.713 17.283 5.694 5.311 11.949 9.3 18.775 11.944 6.827 2.658 14.276 3.979 22.344 3.979 8.097 0 15.556-1.34 22.396-4.036 6.827-2.681 13.072-6.718 18.733-12.095 5.646-5.372 9.876-11.33 12.685-17.878 2.809-6.552 4.216-13.742 4.216-21.579 0-12.562-3.333-23.255-9.99-32.088-6.722-8.918-16.877-16.027-30.459-21.305h-.005c-5.325-2.092-9.857-4.004-13.596-5.741-3.833-1.789-6.935-3.437-9.286-4.961-2.658-1.728-4.669-3.824-6.019-6.308-1.369-2.506-2.049-5.334-2.049-8.478 0-5.623 2.361-9.843 7.072-12.666 4.235-2.54 10.358-3.82 18.383-3.82 3.697 0 7.808.35 12.331 1.03 3.645.542 7.539 1.321 11.708 2.308l6.529-22.613c-5.604-1.275-10.887-2.266-15.843-2.946-5.755-.807-11.09-1.213-15.976-1.213-7.431 0-14.158.911-20.191 2.738-5.972 1.808-11.259 4.499-15.853 8.077-4.513 3.541-7.907 7.743-10.159 12.605-2.266 4.896-3.413 10.523-3.413 16.863 0 5.255 1.274 10.178 3.819 14.781M926.039 223.779c-10.282 14.134-34.845 9.649-52.114 8.204-5.259-12.585-19.681-38.928-8.871-53.818 12.001-16.527 38.447-38.461 44.004-34.613 6.043 4.192-10.636 44.442-6.194 47.525 4.442 3.092 37.361-25.087 42.842-21.093 5.948 4.334-8.474 38.39-19.667 53.795M1004.75 247.881c20.299 0 33.263-11.977 33.263-34.529 0-22.273-13.247-34.245-33.263-34.245h-15.084v68.774h15.084Zm-33.122-78.508c0-3.801 1.973-5.916 5.778-5.916h28.33c30.87 0 51.028 18.322 51.028 49.895 0 31.574-20.158 50.174-51.028 50.174h-28.33c-3.805 0-5.778-1.973-5.778-5.91v-88.243ZM1119.33 223.078l-8.88-26.772c-1.685-5.642-3.942-15.513-3.942-15.513h-.283s-2.252 9.871-3.947 15.513l-9.017 26.772h26.069Zm-24.1-54.828c1.133-3.234 3.248-4.792 6.623-4.792h9.022c3.38 0 5.641 1.558 6.623 4.792l31.29 88.512c1.412 4.083-.42 6.765-4.787 6.765h-6.486c-3.38 0-5.642-1.554-6.624-4.787l-7.048-20.857h-35.1l-6.902 20.715c-.986 3.375-3.243 4.929-6.623 4.929h-6.487c-4.366 0-6.198-2.682-4.791-6.765l31.29-88.512ZM1196.99 210.395c9.72 0 15.787-6.066 15.787-15.928 0-6.35-2.399-11.42-7.899-13.676-2.393-1.129-5.495-1.686-10.853-1.686h-13.388v31.29h16.353Zm-34.397-41.019c0-3.801 1.979-5.916 5.779-5.916h27.065c9.866 0 14.8.845 19.03 2.677 10.145 4.225 16.768 13.813 16.768 27.339 0 11.84-6.203 23.113-16.627 27.348v.278s1.265 1.553 3.239 5.222l16.495 30.161c2.388 4.079.557 7.044-4.093 7.044h-7.606c-3.248 0-5.358-1.265-6.911-4.093l-17.614-33.249h-17.481v31.427c0 3.937-1.969 5.915-5.774 5.915h-6.491c-3.8 0-5.779-1.978-5.779-5.915v-88.238ZM1250.83 169.373c0-3.8 1.973-5.915 5.778-5.915h6.487c3.8 0 5.773 2.115 5.773 5.915v88.238c0 3.938-1.973 5.916-5.773 5.916h-6.487c-3.805 0-5.778-1.978-5.778-5.916v-88.238ZM1338.07 223.078l-8.876-26.772c-1.694-5.642-3.946-15.513-3.946-15.513h-.284s-2.251 9.871-3.942 15.513l-9.021 26.772h26.069Zm-24.096-54.828c1.124-3.234 3.239-4.792 6.619-4.792h9.017c3.385 0 5.646 1.558 6.633 4.792l31.29 88.512c1.406 4.083-.425 6.765-4.792 6.765h-6.491c-3.376 0-5.637-1.554-6.619-4.787l-7.053-20.857h-35.09l-6.907 20.715c-.987 3.375-3.239 4.929-6.623 4.929h-6.482c-4.376 0-6.203-2.682-4.797-6.765l31.295-88.512ZM1381.34 169.373c0-3.8 1.969-5.915 5.779-5.915h6.481c3.805 0 5.774 2.115 5.774 5.915v36.507h45.812v-36.507c0-3.8 1.973-5.915 5.92-5.915h6.344c3.801 0 5.774 2.115 5.774 5.915v88.238c0 3.938-1.973 5.916-5.774 5.916h-6.344c-3.947 0-5.92-1.978-5.92-5.916v-36.077h-45.812v36.077c0 3.938-1.969 5.916-5.774 5.916h-6.481c-3.81 0-5.779-1.978-5.779-5.916v-88.238ZM1482.96 225.199v-3.956c0-3.806 2.11-5.784 5.915-5.784h30.587c3.805 0 5.924 1.978 5.924 5.784v3.956c0 3.937-2.119 5.92-5.924 5.92h-30.587c-3.805 0-5.915-1.983-5.915-5.92M1590.91 161.771c16.495 0 28.476 6.194 32.702 9.159 3.097 2.398 3.38 4.928 1.27 8.176l-2.54 3.942c-2.115 3.243-4.65 3.517-8.172 1.558-4.372-2.544-11.557-6.213-22.273-6.213-21.844 0-33.962 15.796-33.962 34.671 0 21.003 14.795 35.524 33.405 35.524 16.768 0 25.365-10.99 25.365-10.99v-11.132h-9.583c-3.81 0-5.92-2.12-5.92-5.92v-3.81c0-3.946 2.11-5.92 5.92-5.92h20.011c3.805 0 5.779 1.974 5.779 5.92v40.879c0 3.937-1.974 5.915-5.779 5.915h-3.521c-3.805 0-5.779-1.978-5.779-4.792v-2.393c0-1.266.137-2.399.137-2.399h-.278s-8.923 10.042-26.173 11.165h-6.312c-25.115-1.576-46.024-21.838-46.024-51.193 0-29.883 21.849-52.147 51.727-52.147M1685.77 210.395c9.729 0 15.786-6.066 15.786-15.928 0-6.35-2.393-11.42-7.888-13.676-2.399-1.129-5.496-1.686-10.858-1.686h-13.389v31.29h16.349Zm-34.392-41.019c0-3.801 1.978-5.916 5.783-5.916h27.065c9.862 0 14.795.845 19.02 2.677 10.15 4.225 16.778 13.813 16.778 27.339 0 11.84-6.208 23.113-16.636 27.348v.278s1.27 1.553 3.238 5.222l16.495 30.161c2.398 4.079.562 7.044-4.088 7.044h-7.61c-3.239 0-5.354-1.265-6.907-4.093l-17.618-33.249h-17.477v31.427c0 3.937-1.968 5.915-5.778 5.915h-6.482c-3.805 0-5.783-1.978-5.783-5.915v-88.238ZM911.169 37.281c0-17.491 22.523-28.297 37.337-37.281 11.642 7.095 38.806 19.917 38.806 38.324.009 20.423-8.498 53.729-15.258 53.87-7.351.156-17.515-42.205-22.92-42.091-5.41.113-15.47 42.266-22.254 42.247-7.365-.005-15.711-36.035-15.711-55.069M850.857 135.926c-16.627-5.405-19.95-30.157-23.916-47.02 10.344-8.889 30.941-30.752 48.446-25.073 19.422 6.298 48.465 24.677 46.51 31.149-2.115 7.043-45.547 3.626-47.109 8.804-1.568 5.17 35.406 27.769 33.301 34.217-2.285 7.006-39.132 3.801-57.232-2.077M1023.62 64.154c16.631-5.411 33.867 12.661 46.996 23.982-3.149 13.265-6.954 43.059-24.454 48.757-19.427 6.317-53.719 8.521-55.952 2.139-2.422-6.945 34.722-29.709 32.942-34.812-1.77-5.113-44.971-1.657-47.053-8.106-2.266-7.025 29.421-26.083 47.521-31.96" fill-rule="nonzero"/>
  </g>
</svg>