<?xml version="1.0" encoding="UTF-8" standalone="no"?>
<!DOCTYPE svg PUBLIC "-//W3C//DTD SVG 1.1//EN" "http://www.w3.org/Graphics/SVG/1.1/DTD/svg11.dtd">
<svg width="100%" height="100%" viewBox="0 0 1016 440" version="1.1" xmlns="http://www.w3.org/2000/svg" xmlns:xlink="http://www.w3.org/1999/xlink" xml:space="preserve" xmlns:serif="http://www.serif.com/" style="fill-rule:evenodd;clip-rule:evenodd;stroke-linejoin:round;stroke-miterlimit:2;"><g><path d="M26.201,439.528l-26.179,-0l72.255,-194.511l25.789,-0l-71.865,194.511Z" style="fill-rule:nonzero;"/><path d="M969.99,2.781l17.348,50.48l28.473,0l0,-50.48l-45.821,0Z" style="fill-rule:nonzero;"/><path d="M892.922,118.386l18.468,-60.183l18.475,60.183l-36.943,-0Zm-471.325,24.911c-27.157,-0 -44.79,-20.715 -44.79,-46.758c0,-26.025 17.633,-46.752 44.79,-46.752c27.152,-0 44.785,20.727 44.785,46.752c-0,26.043 -17.633,46.758 -44.785,46.758m-190.753,-24.911l18.474,-60.183l18.475,60.183l-36.949,-0Zm644.996,-115.606l-56.561,153.355l0,-153.355l-56.549,0l0,88.46l-64.948,-88.46l-58.226,0l-0,69.126l-66.904,0l0,-69.126l-56.549,0l-0,54.925c-15.108,-35.496 -51.067,-57.734 -94.506,-57.734c-57.633,-0 -102.127,39.141 -102.181,96.473l-34.548,-93.664l-71.1,0l-68.859,186.712l64.1,-0l6.721,-21.83l67.188,0l6.715,21.83l64.107,-0l-10.752,-29.149c18.546,20.637 46.527,32.77 78.609,32.77c43.439,-0 79.398,-22.238 94.506,-57.735l-0,54.114l56.549,-0l0,-68.309l66.904,0l-0,68.309l56.549,-0l0,-94.625l68.866,94.625l106.11,-0l6.721,-21.83l67.188,0l6.716,21.83l64.106,-0l-68.866,-186.712l-71.106,0Z" style="fill-rule:nonzero;"/><path d="M430.931,71.587l-18.664,-0c-13.65,-0 -24.71,11.06 -24.71,24.704l0,0.497c0,13.65 11.06,24.71 24.71,24.71l18.664,-0c13.644,-0 24.703,-11.06 24.703,-24.71l0,-0.497c0,-13.644 -11.059,-24.704 -24.703,-24.704" style="fill-rule:nonzero;"/><path d="M292.191,319.095l-0,-56.531l38.893,-0l-0,10.094l-27.65,-0l0,13.371l23.631,-0l0,10.01l-23.631,0l0,13.129l27.65,-0l-0,9.927l-38.893,0Zm-15.256,-44.962l-8.209,0l8.369,-12.636l12.061,0l-12.221,12.636Z" style="fill-rule:nonzero;"/><path d="M348.329,294.647l0,11.646c3.533,1.974 6.894,3.201 9.519,3.201c2.632,-0 5.091,-1.476 5.091,-6.153l0.083,-8.694c0,-5.086 -3.858,-7.059 -7.391,-7.059c-3.52,-0 -7.302,1.973 -7.302,7.059m10.669,24.78c-2.786,0 -5.251,-0.581 -10.669,-3.2l0,19.197l-10.419,0l0.083,-42.585c-0,-10.094 9.601,-14.853 17.638,-14.853c8.126,-0 17.811,4.759 17.811,14.853l0.083,11.409c-0,8.855 -5.992,15.179 -14.527,15.179" style="fill-rule:nonzero;"/><path d="M397.372,319.341c-8.861,0 -16.904,-5.334 -16.904,-13.294c-0,-2.46 1.968,-6.318 5.251,-7.877c-3.935,-1.725 -4.676,-5.168 -4.676,-7.385c-0,-6.727 6.976,-12.796 16.495,-12.796c5.583,-0 11.403,1.393 16.002,5.992l-6.241,7.136c-2.868,-2.874 -6.644,-3.449 -9.347,-3.449c-0.989,-0 -2.388,0.083 -3.615,0.415c-1.725,0.574 -3.201,1.724 -3.201,3.36c0,1.891 1.559,3.201 5.744,3.201l5.334,-0l-0,7.877l-5.909,-0c-3.361,-0 -5.661,1.315 -5.661,3.692c0,1.233 0.984,2.543 3.284,3.284c0.984,0.332 2.128,0.409 3.444,0.409c2.548,-0 7.059,-0.409 9.927,-3.693l6.65,7.219c-4.599,4.594 -11,5.909 -16.577,5.909" style="fill-rule:nonzero;"/><path d="M437.199,319.507c-8.12,-0 -17.722,-4.511 -17.722,-14.687l0,-26.423l10.426,0l-0,24.449c-0,5.174 3.852,7.059 7.385,7.059c3.521,0 7.385,-1.885 7.385,-7.059l-0,-24.449l10.337,0l-0,26.423c-0,10.176 -9.602,14.687 -17.811,14.687" style="fill-rule:nonzero;"/><path d="M484.042,319.095l-8.12,0l-15.262,-40.617l11.327,-0l7.954,23.388l8.043,-23.388l11.243,-0l-15.185,40.617Z" style="fill-rule:nonzero;"/><path d="M527.915,291.197c-3.532,-2.051 -7.302,-3.526 -9.518,-3.609c-2.875,-0 -5.175,1.884 -5.175,6.235l0,9.518c0,4.677 2.543,6.153 5.175,6.153c2.625,-0 5.986,-1.227 9.518,-3.201l0,-15.096Zm0,27.898l0,-2.868c-5.5,2.625 -8.042,3.2 -10.668,3.2c-8.535,0 -14.527,-6.324 -14.527,-15.179l-0,-11.077c-0,-8.867 5.992,-15.185 14.527,-15.185c2.874,-0 5.826,0.984 10.828,3.858l0,-3.443l10.177,-0l0,40.694l-10.337,0Z" style="fill-rule:nonzero;"/><path d="M586.189,269.862c-2.542,0 -3.692,2.3 -3.692,4.517c-0,2.05 1.233,4.184 2.626,6.152c3.04,-1.642 5.411,-3.527 5.411,-6.727c-0,-2.217 -1.796,-3.942 -4.345,-3.942m-4.267,21.912c-4.676,2.543 -8.452,5.744 -8.452,10.42c0,5.743 4.356,8.784 9.436,8.784c3.283,-0 6.893,-1.316 9.768,-4.025l-10.752,-15.179Zm19.369,27.324l-3.615,-5.092c-4.185,3.527 -8.612,5.418 -14.77,5.418c-10.254,-0 -18.706,-6.567 -18.706,-17.07c0,-7.871 6.236,-14.029 12.554,-17.716c-1.885,-2.874 -3.361,-5.666 -3.361,-9.85c0,-7.634 4.676,-13.129 12.796,-13.129c7.551,0 13.135,5.335 13.135,12.145c-0,6.804 -4.6,10.751 -9.525,13.786l8.043,11.077c0.901,-1.973 1.316,-4.107 1.559,-7.307l8.866,-0c-0.332,5.251 -1.398,10.834 -4.599,15.427l8.944,12.311l-11.321,-0Z" style="fill-rule:nonzero;"/><path d="M670.076,319.095l-14.687,-24.857l-7.711,9.103l0,15.754l-11.249,0l-0,-56.531l11.249,-0l0,24.692l20.673,-24.692l13.295,-0l-18.795,22.807l20.022,33.724l-12.797,0Z" style="fill-rule:nonzero;"/><path d="M710.297,291.197c-3.532,-2.051 -7.302,-3.526 -9.519,-3.609c-2.868,-0 -5.174,1.884 -5.174,6.235l0,9.518c0,4.677 2.549,6.153 5.174,6.153c2.626,-0 5.987,-1.227 9.519,-3.201l0,-15.096Zm0,27.898l0,-2.868c-5.494,2.625 -8.037,3.2 -10.668,3.2c-8.529,0 -14.521,-6.324 -14.521,-15.179l-0,-11.077c-0,-8.867 5.992,-15.185 14.521,-15.185c2.874,-0 5.826,0.984 10.834,3.858l0,-3.443l10.177,-0l-0,40.694l-10.343,0Z" style="fill-rule:nonzero;"/><path d="M740.922,319.095c-5.749,0 -10.746,-2.951 -10.746,-10.745l0,-29.872l10.337,-0l-0,26.997c-0,3.201 1.879,3.859 3.443,3.859l1.968,-0l0,9.761l-5.002,0Z" style="fill-rule:nonzero;"/><path d="M772.16,319.095l-8.12,0l-15.256,-40.617l11.32,-0l7.96,23.388l8.037,-23.388l11.25,-0l-15.191,40.617Z" style="fill-rule:nonzero;"/><path d="M816.108,294.647c0,-5.086 -3.858,-7.059 -7.385,-7.059c-3.526,-0 -7.385,1.973 -7.385,7.059l0,8.203c0,5.168 3.859,7.059 7.385,7.059c3.527,-0 7.385,-1.891 7.385,-7.059l0,-8.203Zm-7.468,24.857c-8.125,0 -17.727,-4.51 -17.727,-14.687l-0,-11.978c-0,-10.094 9.685,-14.853 17.81,-14.853c8.12,-0 17.722,4.759 17.722,14.853l0,11.978c0,10.177 -9.602,14.687 -17.805,14.687" style="fill-rule:nonzero;"/><path d="M853.476,319.177c-8.292,-0 -14.118,-4.185 -14.118,-14.03l0,-17.721l-7.468,-0l0,-9.027l27.981,0l0,9.027l-10.176,-0l-0,16.412c-0,4.261 2.056,5.986 5.417,5.986l4.759,-0l0,9.353l-6.395,-0Z" style="fill-rule:nonzero;"/><path d="M891.197,294.647c0,-5.086 -3.858,-7.059 -7.385,-7.059c-3.532,-0 -7.391,1.973 -7.391,7.059l0,8.203c0,5.168 3.859,7.059 7.391,7.059c3.527,-0 7.385,-1.891 7.385,-7.059l0,-8.203Zm-7.474,24.857c-8.12,0 -17.721,-4.51 -17.721,-14.687l-0,-11.978c-0,-10.094 9.684,-14.853 17.81,-14.853c8.12,-0 17.722,4.759 17.722,14.853l-0,11.978c-0,10.177 -9.602,14.687 -17.811,14.687" style="fill-rule:nonzero;"/><path d="M934.266,319.095l0,-3.117c-5.494,3.283 -7.96,3.526 -10.74,3.526c-1.564,0 -2.963,-0.243 -4.03,-0.818l0,16.738l-10.419,0l-0,-57.023l10.502,-0l0,25.023c0,4.677 2.543,6.159 5.174,6.159c2.537,-0 5.489,-1.316 9.513,-3.859l0,-27.323l10.343,-0l-0,40.694l-10.343,0Z" style="fill-rule:nonzero;"/><path d="M964.485,319.095c-5.743,0 -10.745,-2.951 -10.745,-10.745l-0,-29.872l10.336,-0l0,26.997c0,3.201 1.891,3.859 3.45,3.859l1.968,-0l-0,9.761l-5.009,0Zm-3.283,-45.045l-7.954,0l8.197,-12.387l11.818,0l-12.061,12.387Z" style="fill-rule:nonzero;"/><path d="M1001.45,291.197c-3.533,-2.051 -7.302,-3.526 -9.519,-3.609c-2.875,-0 -5.174,1.884 -5.174,6.235l-0,9.518c-0,4.677 2.548,6.153 5.174,6.153c2.626,-0 5.986,-1.227 9.519,-3.201l-0,-15.096Zm-0,27.898l-0,-2.868c-5.501,2.625 -8.043,3.2 -10.669,3.2c-8.535,0 -14.527,-6.324 -14.527,-15.179l0,-11.077c0,-8.867 5.992,-15.185 14.527,-15.185c2.875,-0 5.826,0.984 10.829,3.858l-0,-3.443l10.176,-0l0,40.694l-10.336,0Z" style="fill-rule:nonzero;"/><path d="M120.344,376.759l-0,46.438l-11.238,-0l0,-46.438l-15.019,-0l0,-10.094l41.193,0l-0,10.094l-14.936,-0Z" style="fill-rule:nonzero;"/><path d="M151.668,423.446c-8.86,-0 -16.903,-5.335 -16.903,-13.295c-0,-2.459 1.967,-6.318 5.251,-7.877c-3.935,-1.718 -4.676,-5.168 -4.676,-7.385c-0,-6.727 6.976,-12.796 16.494,-12.796c5.584,0 11.404,1.393 16.003,5.992l-6.235,7.136c-2.875,-2.874 -6.65,-3.449 -9.353,-3.449c-0.99,-0 -2.388,0.083 -3.615,0.415c-1.725,0.575 -3.201,1.725 -3.201,3.36c0,1.891 1.559,3.201 5.743,3.201l5.335,-0l-0,7.877l-5.909,-0c-3.361,-0 -5.661,1.316 -5.661,3.692c0,1.233 0.984,2.543 3.284,3.284c0.984,0.332 2.128,0.409 3.443,0.409c2.549,-0 7.059,-0.409 9.934,-3.693l6.644,7.219c-4.599,4.594 -11,5.91 -16.578,5.91" style="fill-rule:nonzero;"/><path d="M197.944,423.2l-7.302,-11.736l-7.391,11.736l-12.63,-0l14.272,-20.757l-13.614,-19.861l12.713,0l6.727,11.084l6.733,-11.084l12.637,0l-13.709,19.861l14.284,20.757l-12.72,-0Z" style="fill-rule:nonzero;"/><path d="M237.708,423.2l-8.12,-0l-15.262,-40.618l11.326,0l7.96,23.388l8.037,-23.388l11.244,0l-15.185,40.618Z" style="fill-rule:nonzero;"/><path d="M281.657,398.751c-0,-5.085 -3.853,-7.059 -7.385,-7.059c-3.527,-0 -7.385,1.974 -7.385,7.059l-0,8.203c-0,5.168 3.858,7.059 7.385,7.059c3.532,-0 7.385,-1.891 7.385,-7.059l-0,-8.203Zm-7.468,24.858c-8.126,-0 -17.722,-4.511 -17.722,-14.687l0,-11.979c0,-10.093 9.685,-14.853 17.805,-14.853c8.12,0 17.728,4.76 17.728,14.853l-0,11.979c-0,10.176 -9.608,14.687 -17.811,14.687" style="fill-rule:nonzero;"/><path d="M334.797,382.83l-0,40.369l-10.426,0l0,-26.007c-4.024,-2.549 -6.893,-4.185 -9.441,-4.185c-2.62,0 -5.169,1.47 -5.169,6.152l0,24.04l-10.496,0l-0,-24.858c-0,-8.949 5.992,-15.262 14.438,-15.262c2.874,0 4.516,0.243 10.668,3.936l0,-4.433c0,-4.019 -2.542,-6.728 -6.561,-6.728c-3.864,0 -8.049,1.725 -10.585,3.367l-4.511,-8.535c5.661,-3.935 10.254,-4.842 16.572,-4.842c8.861,-0 15.511,6.401 15.511,16.986" style="fill-rule:nonzero;"/><path d="M367.65,398.751c0,-5.085 -3.858,-7.059 -7.385,-7.059c-3.532,-0 -7.391,1.974 -7.391,7.059l0,8.203c0,5.168 3.859,7.059 7.391,7.059c3.527,-0 7.385,-1.891 7.385,-7.059l0,-8.203Zm-7.474,24.858c-8.12,-0 -17.721,-4.511 -17.721,-14.687l-0,-11.979c-0,-10.093 9.684,-14.853 17.81,-14.853c8.12,0 17.722,4.76 17.722,14.853l-0,11.979c-0,10.176 -9.602,14.687 -17.811,14.687" style="fill-rule:nonzero;"/><path d="M408.467,418.933l0,20.68l-10.336,-0l-0,-20.597l-8.618,-21.005c-0.818,-2.299 -3.041,-5.826 -6.401,-6.241l2.708,-9.756c5.246,0.403 9.602,2.952 11.819,8.529l5.577,13.786l8.209,-21.746l10.995,0l-13.953,36.35Z" style="fill-rule:nonzero;"/><path d="M439.671,423.2c-5.75,-0 -10.746,-2.952 -10.746,-10.746l-0,-29.872l10.337,0l-0,26.997c-0,3.201 1.878,3.859 3.443,3.859l1.968,-0l-0,9.762l-5.002,-0Zm-3.29,-45.045l-7.948,-0l8.197,-12.388l11.812,0l-12.061,12.388Z" style="fill-rule:nonzero;"/><path d="M468.704,423.446c-8.855,-0 -16.904,-5.335 -16.904,-13.295c0,-2.459 1.968,-6.318 5.251,-7.877c-3.935,-1.718 -4.676,-5.168 -4.676,-7.385c0,-6.727 6.982,-12.796 16.495,-12.796c5.583,0 11.403,1.393 16.003,5.992l-6.236,7.136c-2.874,-2.874 -6.65,-3.449 -9.352,-3.449c-0.984,-0 -2.389,0.083 -3.616,0.415c-1.725,0.575 -3.2,1.725 -3.2,3.36c-0,1.891 1.558,3.201 5.743,3.201l5.334,-0l0,7.877l-5.909,-0c-3.361,-0 -5.66,1.316 -5.66,3.692c-0,1.233 0.984,2.543 3.283,3.284c0.99,0.332 2.128,0.409 3.444,0.409c2.548,-0 7.059,-0.409 9.933,-3.693l6.645,7.219c-4.6,4.594 -11.001,5.91 -16.578,5.91" style="fill-rule:nonzero;"/><path d="M507.97,423.692c-6.069,-0 -11.895,-0.818 -17.965,-5.987l5.495,-7.474c4.35,3.948 8.452,4.44 13.051,4.44c2.708,-0 5.66,-1.316 5.66,-3.859c0,-1.967 -1.648,-3.449 -5.008,-3.858c-7.302,-1.067 -16.821,-1.642 -16.821,-11.902c0,-8.528 7.142,-12.879 15.505,-12.879c6.484,0 11.243,0.901 16.418,4.76l-4.926,7.628c-4.184,-2.869 -7.794,-3.278 -11.492,-3.278c-4.261,-0 -5.245,1.968 -5.245,3.852c-0,2.466 5.494,2.875 7.711,3.284c8.043,1.073 14.527,2.875 14.527,12.304c-0,8.541 -7.8,12.969 -16.91,12.969" style="fill-rule:nonzero;"/><path d="M582.248,423.2l-0,-46.438l-20.839,-0l-0,46.438l-11.244,-0l0,-56.532l43.492,0l0,56.532l-11.409,-0Z" style="fill-rule:nonzero;"/><path d="M636.934,382.83l-0,40.369l-10.426,0l0,-26.007c-4.024,-2.549 -6.887,-4.185 -9.436,-4.185c-2.625,0 -5.168,1.47 -5.168,6.152l0,24.04l-10.502,0l-0,-24.858c-0,-8.949 5.992,-15.262 14.444,-15.262c2.874,0 4.51,0.243 10.662,3.936l0,-4.433c0,-4.019 -2.542,-6.728 -6.561,-6.728c-3.858,0 -8.043,1.725 -10.58,3.367l-4.516,-8.535c5.66,-3.935 10.254,-4.842 16.572,-4.842c8.861,-0 15.511,6.401 15.511,16.986" style="fill-rule:nonzero;"/><path d="M680.749,397.353l-0,25.847l-10.497,0l0,-25.023c0,-4.677 -2.548,-6.159 -5.18,-6.159c-2.537,0 -5.411,1.316 -9.43,3.859l0,27.323l-10.425,0l-0,-40.694l10.425,-0l0,3.194c5.495,-3.283 7.794,-3.609 10.663,-3.609c8.452,-0 14.444,6.318 14.444,15.262" style="fill-rule:nonzero;"/><path d="M698.634,398.751l0,11.646c3.533,1.974 6.893,3.201 9.519,3.201c2.625,-0 5.085,-1.476 5.085,-6.152l0.089,-8.695c0,-5.085 -3.864,-7.059 -7.397,-7.059c-3.52,-0 -7.296,1.974 -7.296,7.059m10.663,24.781c-2.786,-0 -5.252,-0.581 -10.663,-3.201l0,19.197l-10.425,0l0.083,-42.585c-0,-10.093 9.601,-14.853 17.638,-14.853c8.132,0 17.811,4.76 17.811,14.853l0.083,11.41c-0,8.854 -5.992,15.179 -14.527,15.179" style="fill-rule:nonzero;"/><path d="M755.844,398.751c-0,-5.085 -3.859,-7.059 -7.391,-7.059c-3.527,-0 -7.385,1.974 -7.385,7.059l-0,8.203c-0,5.168 3.858,7.059 7.385,7.059c3.532,-0 7.391,-1.891 7.391,-7.059l-0,-8.203Zm-7.474,24.858c-8.126,-0 -17.722,-4.511 -17.722,-14.687l0,-11.979c0,-10.093 9.685,-14.853 17.805,-14.853c8.126,0 17.727,4.76 17.727,14.853l0,11.979c0,10.176 -9.601,14.687 -17.81,14.687" style="fill-rule:nonzero;"/><path d="M811.194,398.256c0,-4.676 -2.542,-6.152 -5.168,-6.152c-1.067,-0 -2.294,0.326 -3.526,0.735l-0,21.171l0.414,-0c4.594,-0.243 8.28,-2.709 8.28,-7.302l0,-8.452Zm-8.772,41.269l-10.342,0l-0,-15.913c-8.784,-0 -18.955,-5.003 -18.955,-14.77l0,-11.57c0,-8.286 6.811,-13.128 13.621,-14.444l1.718,9.519c-2.542,0.741 -4.919,2.874 -4.919,6.816l0,7.545c0,4.759 4.273,7.302 8.535,7.302l-0,-27.572c4.919,-2.869 9.436,-4.262 14.444,-4.345c9.187,0 15.173,5.992 15.173,15.262l-0,11.487c-0,9.767 -10.094,14.77 -18.866,14.77l-0.409,-0l0,15.913Z" style="fill-rule:nonzero;"/><path d="M853.719,398.751c0,-5.085 -3.858,-7.059 -7.385,-7.059c-3.526,-0 -7.385,1.974 -7.385,7.059l0,8.203c0,5.168 3.859,7.059 7.385,7.059c3.527,-0 7.385,-1.891 7.385,-7.059l0,-8.203Zm-7.468,24.858c-8.126,-0 -17.721,-4.511 -17.721,-14.687l-0,-11.979c-0,-10.093 9.678,-14.853 17.804,-14.853c8.12,0 17.722,4.76 17.722,14.853l-0,11.979c-0,10.176 -9.602,14.687 -17.805,14.687" style="fill-rule:nonzero;"/><path d="M881.468,398.751l-0,11.646c3.532,1.974 6.893,3.201 9.518,3.201c2.626,-0 5.091,-1.476 5.091,-6.152l0.083,-8.695c0,-5.085 -3.864,-7.059 -7.39,-7.059c-3.521,-0 -7.302,1.974 -7.302,7.059m10.668,24.781c-2.792,-0 -5.251,-0.581 -10.668,-3.201l-0,19.197l-10.42,0l0.083,-42.585c-0,-10.093 9.596,-14.853 17.639,-14.853c8.125,0 17.804,4.76 17.804,14.853l0.089,11.41c0,8.854 -5.992,15.179 -14.527,15.179" style="fill-rule:nonzero;"/><path d="M925.485,423.2c-5.743,-0 -10.745,-2.952 -10.745,-10.746l-0,-29.872l10.336,0l0,26.997c0,3.201 1.891,3.859 3.45,3.859l1.968,-0l-0,9.762l-5.009,-0Zm-3.283,-45.045l-7.954,-0l8.197,-12.388l11.818,0l-12.061,12.388Z" style="fill-rule:nonzero;"/><path d="M962.454,395.301c-3.533,-2.051 -7.302,-3.527 -9.519,-3.61c-2.875,0 -5.174,1.885 -5.174,6.235l-0,9.519c-0,4.677 2.548,6.152 5.174,6.152c2.626,0 5.986,-1.227 9.519,-3.2l-0,-15.096Zm-0,27.898l-0,-2.869c-5.501,2.626 -8.043,3.201 -10.669,3.201c-8.535,-0 -14.527,-6.324 -14.527,-15.179l0,-11.078c0,-8.866 5.992,-15.184 14.527,-15.184c2.875,-0 5.826,0.983 10.829,3.858l-0,-3.444l10.176,0l0,40.695l-10.336,0Z" style="fill-rule:nonzero;"/><path d="M997.02,423.692c-6.069,-0 -11.895,-0.818 -17.964,-5.987l5.494,-7.474c4.35,3.948 8.452,4.44 13.045,4.44c2.709,-0 5.66,-1.316 5.66,-3.859c0,-1.967 -1.641,-3.449 -5.002,-3.858c-7.302,-1.067 -16.821,-1.642 -16.821,-11.902c0,-8.528 7.136,-12.879 15.505,-12.879c6.484,0 11.244,0.901 16.412,4.76l-4.919,7.628c-4.185,-2.869 -7.8,-3.278 -11.493,-3.278c-4.261,-0 -5.245,1.968 -5.245,3.852c-0,2.466 5.488,2.875 7.705,3.284c8.043,1.073 14.527,2.875 14.527,12.304c0,8.541 -7.794,12.969 -16.904,12.969" style="fill-rule:nonzero;"/></g></svg>